<svg xmlns="http://www.w3.org/2000/svg" version="1.1" xmlns:xlink="http://www.w3.org/1999/xlink" viewBox="0 0 200 200"><rect width="200" height="200" fill="url('#gradient')"></rect><defs><linearGradient id="gradient" gradientTransform="rotate(45 0.5 0.5)"><stop offset="0%" stop-color="#efefef"></stop><stop offset="100%" stop-color="#ffffff"></stop></linearGradient></defs><g><g fill="#000000" transform="matrix(1.9674709562109025,0,0,1.9674709562109025,12.426149863265692,110.76081638881625)" stroke="#778ca7" stroke-width="0.25"><path d="M12.71-7.60L12.71-1.76Q11.92-0.88 10.40-0.34Q8.88 0.20 7.06 0.20L7.06 0.20Q4.27 0.20 2.60-1.51Q0.93-3.22 0.81-6.27L0.81-6.27L0.80-7.50Q0.80-9.60 1.54-11.17Q2.29-12.73 3.67-13.58Q5.05-14.42 6.87-14.42L6.87-14.42Q9.52-14.42 10.99-13.21Q12.46-11.99 12.71-9.58L12.71-9.58L9.40-9.58Q9.23-10.77 8.64-11.28Q8.06-11.79 6.98-11.79L6.98-11.79Q5.69-11.79 4.99-10.69Q4.29-9.60 4.28-7.57L4.28-7.57L4.28-6.71Q4.28-4.58 5.00-3.51Q5.73-2.44 7.29-2.44L7.29-2.44Q8.63-2.44 9.29-3.04L9.29-3.04L9.29-5.24L6.90-5.24L6.90-7.60L12.71-7.60ZM14.15-4.82L14.14-5.38Q14.14-6.96 14.76-8.20Q15.37-9.43 16.52-10.10Q17.68-10.76 19.23-10.76L19.23-10.76Q21.60-10.76 22.97-9.29Q24.34-7.82 24.34-5.29L24.34-5.29L24.34-5.18Q24.34-2.71 22.96-1.25Q21.59 0.20 19.25 0.20L19.25 0.20Q16.99 0.20 15.63-1.16Q14.26-2.51 14.15-4.82L14.15-4.82ZM17.44-5.77L17.43-5.18Q17.43-3.71 17.89-3.03Q18.35-2.34 19.25-2.34L19.25-2.34Q21.01-2.34 21.04-5.05L21.04-5.05L21.04-5.38Q21.04-8.22 19.23-8.22L19.23-8.22Q17.58-8.22 17.44-5.77L17.44-5.77ZM28.21-10.57L29.85-3.92L31.52-10.57L34.99-10.57L31.54 0L28.18 0L24.74-10.57L28.21-10.57ZM47.76-7.60L47.76-1.76Q46.97-0.88 45.45-0.34Q43.93 0.20 42.11 0.20L42.11 0.20Q39.32 0.20 37.65-1.51Q35.98-3.22 35.86-6.27L35.86-6.27L35.85-7.50Q35.85-9.60 36.59-11.17Q37.33-12.73 38.72-13.58Q40.10-14.42 41.91-14.42L41.91-14.42Q44.57-14.42 46.04-13.21Q47.51-11.99 47.75-9.58L47.75-9.58L44.45-9.58Q44.28-10.77 43.69-11.28Q43.11-11.79 42.03-11.79L42.03-11.79Q40.74-11.79 40.04-10.69Q39.34-9.60 39.33-7.57L39.33-7.57L39.33-6.71Q39.33-4.58 40.05-3.51Q40.78-2.44 42.34-2.44L42.34-2.44Q43.68-2.44 44.34-3.04L44.34-3.04L44.34-5.24L41.95-5.24L41.95-7.60L47.76-7.60ZM56.05-10.64L56.00-7.59L54.91-7.67Q53.36-7.67 52.92-6.69L52.92-6.69L52.92 0L49.63 0L49.63-10.57L52.71-10.57L52.82-9.21Q53.65-10.76 55.14-10.76L55.14-10.76Q55.66-10.76 56.05-10.64L56.05-10.64ZM66.13 0L62.84 0Q62.67-0.32 62.53-0.95L62.53-0.95Q61.62 0.20 59.99 0.20L59.99 0.20Q58.50 0.20 57.45-0.71Q56.41-1.61 56.41-2.98L56.41-2.98Q56.41-4.70 57.68-5.58Q58.95-6.46 61.37-6.46L61.37-6.46L62.38-6.46L62.38-7.01Q62.38-8.47 61.12-8.47L61.12-8.47Q59.95-8.47 59.95-7.31L59.95-7.31L56.66-7.31Q56.66-8.85 57.96-9.80Q59.27-10.76 61.29-10.76Q63.31-10.76 64.48-9.78Q65.65-8.79 65.68-7.07L65.68-7.07L65.68-2.39Q65.70-0.94 66.13-0.17L66.13-0.17L66.13 0ZM60.78-2.15L60.78-2.15Q61.40-2.15 61.80-2.41Q62.21-2.68 62.38-3.01L62.38-3.01L62.38-4.70L61.43-4.70Q59.71-4.70 59.71-3.15L59.71-3.15Q59.71-2.71 60.01-2.43Q60.31-2.15 60.78-2.15ZM77.31-5.36L77.31-5.21Q77.31-2.74 76.21-1.27Q75.10 0.20 73.21 0.20L73.21 0.20Q71.76 0.20 70.82-0.87L70.82-0.87L70.82 4.06L67.53 4.06L67.53-10.57L70.61-10.57L70.70-9.59Q71.65-10.76 73.19-10.76L73.19-10.76Q75.15-10.76 76.23-9.32Q77.31-7.88 77.31-5.36L77.31-5.36ZM74.02-5.06L74.02-5.41Q74.02-8.22 72.38-8.22L72.38-8.22Q71.21-8.22 70.82-7.38L70.82-7.38L70.82-3.22Q71.25-2.34 72.40-2.34L72.40-2.34Q73.97-2.34 74.02-5.06L74.02-5.06ZM81.98-15L81.98-9.43Q83.04-10.76 84.68-10.76L84.68-10.76Q86.43-10.76 87.31-9.73Q88.20-8.69 88.22-6.67L88.22-6.67L88.22 0L84.92 0L84.92-6.59Q84.92-7.43 84.58-7.83Q84.24-8.22 83.42-8.22L83.42-8.22Q82.40-8.22 81.98-7.58L81.98-7.58L81.98 0L78.69 0L78.69-15L81.98-15Z"></path></g></g></svg>